REM DIRINDEX 1\2,1\3,1\4,1\5,1\6,1\7,1\8
REM DIRNAME cjc152,folder01,folder02,folder03,folder04,folder05,folder06,folder07
TITLE ""
FILE "08_Ch2_Commuting_Tweets.mp3" MP3
  TRACK 01 AUDIO
    TITLE "0:"
    INDEX 01 00:00:00
  TRACK 02 AUDIO
    TITLE "8:cjc152_0383"
    INDEX 01 00:00:43
  TRACK 03 AUDIO
    TITLE "0:"
    INDEX 01 00:03:15
  TRACK 04 AUDIO
    TITLE "8:cjc152_0384"
    INDEX 01 00:03:72
  TRACK 05 AUDIO
    TITLE "0:"
    INDEX 01 00:05:50
  TRACK 06 AUDIO
    TITLE "4:cjc152_0385"
    INDEX 01 00:06:43
  TRACK 07 AUDIO
    TITLE "0:"
    INDEX 01 00:10:02
  TRACK 08 AUDIO
    TITLE "4:cjc152_0386"
    INDEX 01 00:10:68
  TRACK 09 AUDIO
    TITLE "0:"
    INDEX 01 00:13:71
  TRACK 10 AUDIO
    TITLE "4:cjc152_0387"
    INDEX 01 00:15:56
  TRACK 11 AUDIO
    TITLE "0:"
    INDEX 01 00:18:64
  TRACK 12 AUDIO
    TITLE "4:cjc152_0388"
    INDEX 01 00:19:56
  TRACK 13 AUDIO
    TITLE "0:"
    INDEX 01 00:23:63
  TRACK 14 AUDIO
    TITLE "4:cjc152_0389"
    INDEX 01 00:25:48
  TRACK 15 AUDIO
    TITLE "0:"
    INDEX 01 00:27:49
  TRACK 16 AUDIO
    TITLE "4:cjc152_0390"
    INDEX 01 00:28:41
  TRACK 17 AUDIO
    TITLE "0:"
    INDEX 01 00:30:59
  TRACK 18 AUDIO
    TITLE "4:cjc152_0391"
    INDEX 01 00:32:43
  TRACK 19 AUDIO
    TITLE "0:"
    INDEX 01 00:35:70
  TRACK 20 AUDIO
    TITLE "4:cjc152_0392"
    INDEX 01 00:36:64
  TRACK 21 AUDIO
    TITLE "0:"
    INDEX 01 00:40:23
  TRACK 22 AUDIO
    TITLE "4:cjc152_0393"
    INDEX 01 00:42:08
  TRACK 23 AUDIO
    TITLE "0:"
    INDEX 01 00:45:43
  TRACK 24 AUDIO
    TITLE "4:cjc152_0394"
    INDEX 01 00:46:41
  TRACK 25 AUDIO
    TITLE "0:"
    INDEX 01 00:50:42
  TRACK 26 AUDIO
    TITLE "4:cjc152_0395"
    INDEX 01 00:52:26
  TRACK 27 AUDIO
    TITLE "0:"
    INDEX 01 00:54:48
  TRACK 28 AUDIO
    TITLE "4:cjc152_0396"
    INDEX 01 00:55:40
  TRACK 29 AUDIO
    TITLE "0:"
    INDEX 01 00:59:04
  TRACK 30 AUDIO
    TITLE "4:cjc152_0397"
    INDEX 01 01:00:64
  TRACK 31 AUDIO
    TITLE "0:"
    INDEX 01 01:05:28
  TRACK 32 AUDIO
    TITLE "4:cjc152_0398"
    INDEX 01 01:06:22
  TRACK 33 AUDIO
    TITLE "0:"
    INDEX 01 01:11:74
  TRACK 34 AUDIO
    TITLE "4:cjc152_0399"
    INDEX 01 01:13:59
  TRACK 35 AUDIO
    TITLE "0:"
    INDEX 01 01:18:21
  TRACK 36 AUDIO
    TITLE "4:cjc152_0400"
    INDEX 01 01:19:27
  TRACK 37 AUDIO
    TITLE "0:"
    INDEX 01 01:25:70
  TRACK 38 AUDIO
    TITLE "4:cjc152_0401"
    INDEX 01 01:27:67
  TRACK 39 AUDIO
    TITLE "0:"
    INDEX 01 01:30:64
  TRACK 40 AUDIO
    TITLE "4:cjc152_0402"
    INDEX 01 01:31:55
  TRACK 41 AUDIO
    TITLE "0:"
    INDEX 01 01:35:27
  TRACK 42 AUDIO
    TITLE "4:cjc152_0403"
    INDEX 01 01:37:11
  TRACK 43 AUDIO
    TITLE "0:"
    INDEX 01 01:41:18
  TRACK 44 AUDIO
    TITLE "4:cjc152_0404"
    INDEX 01 01:42:12
  TRACK 45 AUDIO
    TITLE "0:"
    INDEX 01 01:47:05
  TRACK 46 AUDIO
    TITLE "4:cjc152_0405"
    INDEX 01 01:48:63
  TRACK 47 AUDIO
    TITLE "0:"
    INDEX 01 01:51:03
  TRACK 48 AUDIO
    TITLE "4:cjc152_0406"
    INDEX 01 01:51:70
  TRACK 49 AUDIO
    TITLE "0:"
    INDEX 01 01:56:14
  TRACK 50 AUDIO
    TITLE "4:cjc152_0407"
    INDEX 01 01:57:72
  TRACK 51 AUDIO
    TITLE "0:"
    INDEX 01 02:00:31
  TRACK 52 AUDIO
    TITLE "4:cjc152_0408"
    INDEX 01 02:01:25
  TRACK 53 AUDIO
    TITLE "0:"
    INDEX 01 02:04:23
  TRACK 54 AUDIO
    TITLE "4:cjc152_0409"
    INDEX 01 02:06:05
  TRACK 55 AUDIO
    TITLE "0:"
    INDEX 01 02:09:52
  TRACK 56 AUDIO
    TITLE "4:cjc152_0410"
    INDEX 01 02:10:43
  TRACK 57 AUDIO
    TITLE "0:"
    INDEX 01 02:14:28
  TRACK 58 AUDIO
    TITLE "4:cjc152_0411"
    INDEX 01 02:16:09
  TRACK 59 AUDIO
    TITLE "0:"
    INDEX 01 02:19:33
  TRACK 60 AUDIO
    TITLE "4:cjc152_0412"
    INDEX 01 02:20:24
  TRACK 61 AUDIO
    TITLE "0:"
    INDEX 01 02:24:53
  TRACK 62 AUDIO
    TITLE "4:cjc152_0413"
    INDEX 01 02:26:39
  TRACK 63 AUDIO
    TITLE "0:"
    INDEX 01 02:30:68
  TRACK 64 AUDIO
    TITLE "4:cjc152_0414"
    INDEX 01 02:31:61
  TRACK 65 AUDIO
    TITLE "0:"
    INDEX 01 02:36:08
  TRACK 66 AUDIO
    TITLE "4:cjc152_0415"
    INDEX 01 02:37:66
  TRACK 67 AUDIO
    TITLE "0:"
    INDEX 01 02:41:09
  TRACK 68 AUDIO
    TITLE "4:cjc152_0416"
    INDEX 01 02:42:02
  TRACK 69 AUDIO
    TITLE "0:"
    INDEX 01 02:46:00
  TRACK 70 AUDIO
    TITLE "4:cjc152_0417"
    INDEX 01 02:47:58
  TRACK 71 AUDIO
    TITLE "0:"
    INDEX 01 02:51:42
  TRACK 72 AUDIO
    TITLE "4:cjc152_0418"
    INDEX 01 02:52:34
  TRACK 73 AUDIO
    TITLE "0:"
    INDEX 01 02:56:16
  TRACK 74 AUDIO
    TITLE "4:cjc152_0419"
    INDEX 01 02:57:72
  TRACK 75 AUDIO
    TITLE "0:"
    INDEX 01 03:00:36
  TRACK 76 AUDIO
    TITLE "4:cjc152_0420"
    INDEX 01 03:01:31
  TRACK 77 AUDIO
    TITLE "0:"
    INDEX 01 03:04:08
  TRACK 78 AUDIO
    TITLE "4:cjc152_0421"
    INDEX 01 03:05:68
  TRACK 79 AUDIO
    TITLE "0:"
    INDEX 01 03:09:19
  TRACK 80 AUDIO
    TITLE "4:cjc152_0422"
    INDEX 01 03:10:12
  TRACK 81 AUDIO
    TITLE "0:"
    INDEX 01 03:15:00
  TRACK 82 AUDIO
    TITLE "4:cjc152_0423"
    INDEX 01 03:16:62
  TRACK 83 AUDIO
    TITLE "0:"
    INDEX 01 03:20:34
  TRACK 84 AUDIO
    TITLE "4:cjc152_0424"
    INDEX 01 03:21:26
  TRACK 85 AUDIO
    TITLE "0:"
    INDEX 01 03:25:33
  TRACK 86 AUDIO
    TITLE "4:cjc152_0425"
    INDEX 01 03:27:17
  TRACK 87 AUDIO
    TITLE "0:"
    INDEX 01 03:30:27
  TRACK 88 AUDIO
    TITLE "4:cjc152_0426"
    INDEX 01 03:31:18
  TRACK 89 AUDIO
    TITLE "0:"
    INDEX 01 03:34:68
  TRACK 90 AUDIO
    TITLE "4:cjc152_0427"
    INDEX 01 03:36:61
  TRACK 91 AUDIO
    TITLE "0:"
    INDEX 01 03:39:67
  TRACK 92 AUDIO
    TITLE "4:cjc152_0428"
    INDEX 01 03:40:64
  TRACK 93 AUDIO
    TITLE "0:"
    INDEX 01 03:44:48
  TRACK 94 AUDIO
    TITLE "4:cjc152_0429"
    INDEX 01 03:46:30
  TRACK 95 AUDIO
    TITLE "0:"
    INDEX 01 03:50:65
  TRACK 96 AUDIO
    TITLE "4:cjc152_0430"
    INDEX 01 03:51:56
  TRACK 97 AUDIO
    TITLE "0:"
    INDEX 01 03:57:04
  TRACK 98 AUDIO
    TITLE "4:cjc152_0431"
    INDEX 01 03:58:62
  TRACK 99 AUDIO
    TITLE "0:"
    INDEX 01 04:02:60
  TRACK 100 AUDIO
    TITLE "4:cjc152_0432"
    INDEX 01 04:03:50
  TRACK 101 AUDIO
    TITLE "0:"
    INDEX 01 04:08:24
  TRACK 102 AUDIO
    TITLE "4:cjc152_0433"
    INDEX 01 04:10:17
  TRACK 103 AUDIO
    TITLE "0:"
    INDEX 01 04:13:72
  TRACK 104 AUDIO
    TITLE "4:cjc152_0434"
    INDEX 01 04:14:63
  TRACK 105 AUDIO
    TITLE "0:"
    INDEX 01 04:18:45
  TRACK 106 AUDIO
    TITLE "4:cjc152_0435"
    INDEX 01 04:20:33
  TRACK 107 AUDIO
    TITLE "0:"
    INDEX 01 04:25:47
  TRACK 108 AUDIO
    TITLE "4:cjc152_0436"
    INDEX 01 04:26:41
  TRACK 109 AUDIO
    TITLE "0:"
    INDEX 01 04:32:00
  TRACK 110 AUDIO
    TITLE "4:cjc152_0437"
    INDEX 01 04:33:59
  TRACK 111 AUDIO
    TITLE "0:"
    INDEX 01 04:37:09
  TRACK 112 AUDIO
    TITLE "4:cjc152_0438"
    INDEX 01 04:38:03
  TRACK 113 AUDIO
    TITLE "0:"
    INDEX 01 04:42:73
  TRACK 114 AUDIO
    TITLE "4:cjc152_0439"
    INDEX 01 04:44:59
  TRACK 115 AUDIO
    TITLE "0:"
    INDEX 01 04:49:01
  TRACK 116 AUDIO
    TITLE "4:cjc152_0440"
    INDEX 01 04:49:68
  TRACK 117 AUDIO
    TITLE "0:"
    INDEX 01 04:54:49
  TRACK 118 AUDIO
    TITLE "4:cjc152_0441"
    INDEX 01 04:56:36
  TRACK 119 AUDIO
    TITLE "0:"
    INDEX 01 05:01:06
  TRACK 120 AUDIO
    TITLE "4:cjc152_0442"
    INDEX 01 05:02:00
  TRACK 121 AUDIO
    TITLE "0:"
    INDEX 01 05:07:24
  TRACK 122 AUDIO
    TITLE "4:cjc152_0443"
    INDEX 01 05:09:08
  TRACK 123 AUDIO
    TITLE "0:"
    INDEX 01 05:13:70
  TRACK 124 AUDIO
    TITLE "4:cjc152_0444"
    INDEX 01 05:14:66
  TRACK 125 AUDIO
    TITLE "0:"
    INDEX 01 05:20:56
  TRACK 126 AUDIO
    TITLE "4:cjc152_0445"
    INDEX 01 05:22:51
  TRACK 127 AUDIO
    TITLE "0:"
    INDEX 01 05:26:37
  TRACK 128 AUDIO
    TITLE "4:cjc152_0446"
    INDEX 01 05:27:31
  TRACK 129 AUDIO
    TITLE "0:"
    INDEX 01 05:30:35
  TRACK 130 AUDIO
    TITLE "4:cjc152_0447"
    INDEX 01 05:32:20
  TRACK 131 AUDIO
    TITLE "0:"
    INDEX 01 05:34:70
  TRACK 132 AUDIO
    TITLE "4:cjc152_0448"
    INDEX 01 05:35:56
  TRACK 133 AUDIO
    TITLE "0:"
    INDEX 01 05:38:46
  TRACK 134 AUDIO
    TITLE "4:cjc152_0449"
    INDEX 01 05:40:32
  TRACK 135 AUDIO
    TITLE "0:"
    INDEX 01 05:44:72
  TRACK 136 AUDIO
    TITLE "4:cjc152_0450"
    INDEX 01 05:45:64
  TRACK 137 AUDIO
    TITLE "0:"
    INDEX 01 05:50:12
  TRACK 138 AUDIO
    TITLE "4:cjc152_0451"
    INDEX 01 05:51:71
  TRACK 139 AUDIO
    TITLE "0:"
    INDEX 01 05:56:13
  TRACK 140 AUDIO
    TITLE "4:cjc152_0452"
    INDEX 01 05:57:07
  TRACK 141 AUDIO
    TITLE "0:"
    INDEX 01 06:01:20
  TRACK 142 AUDIO
    TITLE "4:cjc152_0453"
    INDEX 01 06:03:03
  TRACK 143 AUDIO
    TITLE "0:"
    INDEX 01 06:06:29
  TRACK 144 AUDIO
    TITLE "4:cjc152_0454"
    INDEX 01 06:07:23
  TRACK 145 AUDIO
    TITLE "0:"
    INDEX 01 06:10:05
  TRACK 146 AUDIO
    TITLE "4:cjc152_0455"
    INDEX 01 06:11:65
  TRACK 147 AUDIO
    TITLE "0:"
    INDEX 01 06:15:20
  TRACK 148 AUDIO
    TITLE "4:cjc152_0456"
    INDEX 01 06:16:16
  TRACK 149 AUDIO
    TITLE "0:"
    INDEX 01 06:19:22
  TRACK 150 AUDIO
    TITLE "4:cjc152_0457"
    INDEX 01 06:21:05
  TRACK 151 AUDIO
    TITLE "0:"
    INDEX 01 06:25:69
  TRACK 152 AUDIO
    TITLE "4:cjc152_0458"
    INDEX 01 06:26:73
  TRACK 153 AUDIO
    TITLE "0:"
    INDEX 01 06:31:21
  TRACK 154 AUDIO
    TITLE "4:cjc152_0459"
    INDEX 01 06:33:06
  TRACK 155 AUDIO
    TITLE "0:"
    INDEX 01 06:36:30
  TRACK 156 AUDIO
    TITLE "4:cjc152_0460"
    INDEX 01 06:37:26
  TRACK 157 AUDIO
    TITLE "0:"
    INDEX 01 06:39:68
  TRACK 158 AUDIO
    TITLE "4:cjc152_0461"
    INDEX 01 06:41:67
  TRACK 159 AUDIO
    TITLE "0:"
    INDEX 01 06:45:62
  TRACK 160 AUDIO
    TITLE "4:cjc152_0462"
    INDEX 01 06:46:54
  TRACK 161 AUDIO
    TITLE "0:"
    INDEX 01 06:51:67
  TRACK 162 AUDIO
    TITLE "4:cjc152_0463"
    INDEX 01 06:53:50
  TRACK 163 AUDIO
    TITLE "0:"
    INDEX 01 06:56:25
  TRACK 164 AUDIO
    TITLE "4:cjc152_0464"
    INDEX 01 06:57:26
  TRACK 165 AUDIO
    TITLE "0:"
    INDEX 01 07:00:66
  TRACK 166 AUDIO
    TITLE "4:cjc152_0465"
    INDEX 01 07:02:43
  TRACK 167 AUDIO
    TITLE "0:"
    INDEX 01 07:05:69
  TRACK 168 AUDIO
    TITLE "4:cjc152_0466"
    INDEX 01 07:06:63
  TRACK 169 AUDIO
    TITLE "0:"
    INDEX 01 07:10:47
  TRACK 170 AUDIO
    TITLE "4:cjc152_0467"
    INDEX 01 07:12:30
  TRACK 171 AUDIO
    TITLE "0:"
    INDEX 01 07:16:06
  TRACK 172 AUDIO
    TITLE "4:cjc152_0468"
    INDEX 01 07:17:00
  TRACK 173 AUDIO
    TITLE "0:"
    INDEX 01 07:20:24
